<svg width="16" height="8" viewBox="0 0 16 8" fill="none" xmlns="http://www.w3.org/2000/svg">
    <path d="M14.3376 7.53318L14.3355 7.53312C14.2041 7.52938 14.0766 7.47728 13.9811 7.38318L7.99927 1.67406L2.01736 7.3832C1.91815 7.48094 1.78607 7.53017 1.65395 7.532L1.65395 7.53205L1.64937 7.53201C1.44445 7.53014 1.25564 7.41226 1.17292 7.22278L1.1729 7.22278L1.1719 7.2204C1.0905 7.02718 1.13968 6.80848 1.29211 6.66606L7.63685 0.610618C7.83807 0.418574 8.16046 0.418574 8.36168 0.610618L14.706 6.66566C14.8609 6.80893 14.9094 7.03244 14.8259 7.22563L14.8259 7.22563L14.8252 7.22729C14.7403 7.41888 14.5457 7.53691 14.3376 7.53318Z" fill="white" stroke="white" stroke-width="0.4"/>
</svg>
