<svg width="20" height="20" viewBox="0 0 20 20" fill="none" xmlns="http://www.w3.org/2000/svg">
    <path d="M17.9869 3.99345C17.8137 3.99861 17.6493 4.071 17.5285 4.19528L7.33323 14.3906L3.13791 10.1953C3.07648 10.1313 3.0029 10.0802 2.92149 10.045C2.84007 10.0098 2.75244 9.99124 2.66375 9.99034C2.57506 9.98944 2.48707 10.0062 2.40496 10.0398C2.32284 10.0733 2.24824 10.1229 2.18552 10.1856C2.1228 10.2483 2.07322 10.3229 2.0397 10.405C2.00617 10.4871 1.98937 10.5751 1.99027 10.6638C1.99117 10.7525 2.00976 10.8401 2.04495 10.9216C2.08014 11.003 2.13122 11.0766 2.19521 11.138L6.86187 15.8047C6.9869 15.9296 7.15645 15.9998 7.33323 15.9998C7.51001 15.9998 7.67955 15.9296 7.80458 15.8047L18.4712 5.13799C18.5676 5.04434 18.6334 4.92378 18.66 4.7921C18.6867 4.66042 18.6729 4.52377 18.6205 4.40004C18.5682 4.27632 18.4797 4.1713 18.3666 4.09875C18.2535 4.02619 18.1212 3.98949 17.9869 3.99345Z" fill="white"/>
</svg>
